<svg width="114" height="33" viewBox="0 0 114 33" fill="none" xmlns="http://www.w3.org/2000/svg">
<path d="M12.5375 25.384C10.8308 25.384 9.25217 25.0747 7.8015 24.456C6.35083 23.8373 5.0815 22.9733 3.9935 21.864C2.9055 20.7547 2.05217 19.4533 1.4335 17.96C0.836167 16.4667 0.5375 14.8347 0.5375 13.064C0.5375 11.2933 0.8255 9.66133 1.4015 8.168C1.99883 6.65333 2.83083 5.352 3.8975 4.264C4.9855 3.15467 6.25483 2.30133 7.7055 1.704C9.15617 1.08533 10.7348 0.775999 12.4415 0.775999C14.1482 0.775999 15.6735 1.064 17.0175 1.64C18.3828 2.216 19.5348 2.984 20.4735 3.944C21.4122 4.88267 22.0842 5.91733 22.4895 7.048L18.6175 8.904C18.1695 7.66667 17.4122 6.664 16.3455 5.896C15.2788 5.128 13.9775 4.744 12.4415 4.744C10.9482 4.744 9.6255 5.096 8.4735 5.8C7.34283 6.504 6.4575 7.47467 5.8175 8.712C5.19883 9.94933 4.8895 11.4 4.8895 13.064C4.8895 14.728 5.2095 16.1893 5.8495 17.448C6.51083 18.6853 7.4175 19.656 8.5695 20.36C9.7215 21.064 11.0442 21.416 12.5375 21.416C13.7535 21.416 14.8735 21.1813 15.8975 20.712C16.9215 20.2213 17.7428 19.5387 18.3615 18.664C18.9802 17.768 19.2895 16.712 19.2895 15.496V13.672L21.2735 15.4H12.4415V11.72H23.6415V14.12C23.6415 15.9547 23.3322 17.576 22.7135 18.984C22.0948 20.392 21.2522 21.576 20.1855 22.536C19.1402 23.4747 17.9562 24.1893 16.6335 24.68C15.3108 25.1493 13.9455 25.384 12.5375 25.384ZM35.2453 25.384C33.5386 25.384 31.9813 24.9893 30.5733 24.2C29.1866 23.4107 28.0773 22.3333 27.2453 20.968C26.4346 19.6027 26.0293 18.0453 26.0293 16.296C26.0293 14.5467 26.4346 12.9893 27.2453 11.624C28.0773 10.2587 29.1866 9.18133 30.5733 8.392C31.9599 7.60266 33.5173 7.208 35.2453 7.208C36.9519 7.208 38.4986 7.60266 39.8853 8.392C41.2719 9.18133 42.3706 10.2587 43.1813 11.624C44.0133 12.968 44.4293 14.5253 44.4293 16.296C44.4293 18.0453 44.0133 19.6027 43.1813 20.968C42.3493 22.3333 41.2399 23.4107 39.8533 24.2C38.4666 24.9893 36.9306 25.384 35.2453 25.384ZM35.2453 21.544C36.1839 21.544 37.0053 21.32 37.7093 20.872C38.4346 20.424 38.9999 19.8053 39.4053 19.016C39.8319 18.2053 40.0453 17.2987 40.0453 16.296C40.0453 15.272 39.8319 14.376 39.4053 13.608C38.9999 12.8187 38.4346 12.2 37.7093 11.752C37.0053 11.2827 36.1839 11.048 35.2453 11.048C34.2853 11.048 33.4426 11.2827 32.7173 11.752C31.9919 12.2 31.4159 12.8187 30.9893 13.608C30.5839 14.376 30.3813 15.272 30.3813 16.296C30.3813 17.2987 30.5839 18.2053 30.9893 19.016C31.4159 19.8053 31.9919 20.424 32.7173 20.872C33.4426 21.32 34.2853 21.544 35.2453 21.544ZM56.1203 25.384C54.4136 25.384 52.8563 24.9893 51.4483 24.2C50.0616 23.4107 48.9523 22.3333 48.1203 20.968C47.3096 19.6027 46.9043 18.0453 46.9043 16.296C46.9043 14.5467 47.3096 12.9893 48.1203 11.624C48.9523 10.2587 50.0616 9.18133 51.4483 8.392C52.8349 7.60266 54.3923 7.208 56.1203 7.208C57.8269 7.208 59.3736 7.60266 60.7603 8.392C62.1469 9.18133 63.2456 10.2587 64.0563 11.624C64.8883 12.968 65.3043 14.5253 65.3043 16.296C65.3043 18.0453 64.8883 19.6027 64.0563 20.968C63.2243 22.3333 62.1149 23.4107 60.7283 24.2C59.3416 24.9893 57.8056 25.384 56.1203 25.384ZM56.1203 21.544C57.0589 21.544 57.8803 21.32 58.5843 20.872C59.3096 20.424 59.8749 19.8053 60.2803 19.016C60.7069 18.2053 60.9203 17.2987 60.9203 16.296C60.9203 15.272 60.7069 14.376 60.2803 13.608C59.8749 12.8187 59.3096 12.2 58.5843 11.752C57.8803 11.2827 57.0589 11.048 56.1203 11.048C55.1603 11.048 54.3176 11.2827 53.5923 11.752C52.8669 12.2 52.2909 12.8187 51.8643 13.608C51.4589 14.376 51.2563 15.272 51.2563 16.296C51.2563 17.2987 51.4589 18.2053 51.8643 19.016C52.2909 19.8053 52.8669 20.424 53.5923 20.872C54.3176 21.32 55.1603 21.544 56.1203 21.544ZM76.9313 32.04C75.6299 32.04 74.4246 31.8267 73.3153 31.4C72.2059 30.9733 71.2459 30.376 70.4353 29.608C69.6459 28.8613 69.0699 27.976 68.7073 26.952L72.6113 25.48C72.8673 26.2907 73.3686 26.9413 74.1153 27.432C74.8833 27.944 75.8219 28.2 76.9313 28.2C77.7846 28.2 78.5313 28.04 79.1713 27.72C79.8326 27.4 80.3446 26.9307 80.7073 26.312C81.0699 25.7147 81.2513 24.9893 81.2513 24.136V20.168L82.0513 21.128C81.4539 22.1733 80.6539 22.9627 79.6513 23.496C78.6486 24.0293 77.5073 24.296 76.2273 24.296C74.6059 24.296 73.1553 23.9227 71.8753 23.176C70.5953 22.4293 69.5926 21.4053 68.8673 20.104C68.1419 18.8027 67.7793 17.3413 67.7793 15.72C67.7793 14.0773 68.1419 12.616 68.8673 11.336C69.5926 10.056 70.5846 9.05333 71.8433 8.328C73.1019 7.58133 74.5313 7.208 76.1313 7.208C77.4326 7.208 78.5739 7.48533 79.5553 8.04C80.5579 8.57333 81.3899 9.352 82.0513 10.376L81.4753 11.432V7.592H85.4433V24.136C85.4433 25.6507 85.0699 27.0053 84.3233 28.2C83.5979 29.3947 82.5953 30.3333 81.3153 31.016C80.0566 31.6987 78.5953 32.04 76.9313 32.04ZM76.7393 20.424C77.6353 20.424 78.4139 20.232 79.0753 19.848C79.7579 19.4427 80.2913 18.888 80.6753 18.184C81.0593 17.48 81.2513 16.6693 81.2513 15.752C81.2513 14.856 81.0486 14.056 80.6433 13.352C80.2593 12.6267 79.7259 12.0613 79.0433 11.656C78.3819 11.2507 77.6139 11.048 76.7393 11.048C75.8646 11.048 75.0753 11.2507 74.3713 11.656C73.6673 12.0613 73.1126 12.6267 72.7073 13.352C72.3233 14.056 72.1313 14.856 72.1313 15.752C72.1313 16.648 72.3233 17.448 72.7073 18.152C73.1126 18.856 73.6566 19.4107 74.3393 19.816C75.0433 20.2213 75.8433 20.424 76.7393 20.424ZM89.3583 25V0.775999H93.5503V25H89.3583ZM105.677 25.384C103.885 25.384 102.317 24.9787 100.973 24.168C99.6288 23.3573 98.5834 22.2587 97.8368 20.872C97.0901 19.4853 96.7168 17.9493 96.7168 16.264C96.7168 14.5147 97.0901 12.968 97.8368 11.624C98.6048 10.2587 99.6394 9.18133 100.941 8.392C102.263 7.60266 103.735 7.208 105.357 7.208C106.722 7.208 107.917 7.432 108.941 7.88C109.986 8.328 110.871 8.94667 111.597 9.736C112.322 10.5253 112.877 11.432 113.261 12.456C113.645 13.4587 113.837 14.5467 113.837 15.72C113.837 16.0187 113.815 16.328 113.773 16.648C113.751 16.968 113.698 17.2453 113.613 17.48H100.173V14.28H111.245L109.261 15.784C109.453 14.8027 109.399 13.928 109.101 13.16C108.823 12.392 108.354 11.784 107.693 11.336C107.053 10.888 106.274 10.664 105.357 10.664C104.482 10.664 103.703 10.888 103.021 11.336C102.338 11.7627 101.815 12.4027 101.453 13.256C101.111 14.088 100.983 15.1013 101.069 16.296C100.983 17.3627 101.122 18.312 101.485 19.144C101.869 19.9547 102.423 20.584 103.149 21.032C103.895 21.48 104.749 21.704 105.709 21.704C106.669 21.704 107.479 21.5013 108.141 21.096C108.823 20.6907 109.357 20.1467 109.741 19.464L113.133 21.128C112.791 21.96 112.258 22.696 111.533 23.336C110.807 23.976 109.943 24.4773 108.941 24.84C107.959 25.2027 106.871 25.384 105.677 25.384Z" fill="#6A6A6A"/>
</svg>
